# xmcd
#
# Track frame offsets: 
#        150
#        17018
#        34068
#        56794
#        68396
#        80676
#        97521
#        115295
#        142739
#        157590
#
# Disc length: 2295 seconds
#
# Revision: 1
# Processed by: cddbd v1.5.2PL0 Copyright (c) Steve Scherf et al.
# Submitted via: ExactAudioCopy v1.0b4
#
DISCID=6908f50a
DTITLE=Genevieve Chadwick - Riding The Wind,  Forgetting Time
DYEAR=2010
DGENRE=Blues
TTITLE0=Forget Time
TTITLE1=Adrian
TTITLE2=Wanted
TTITLE3=You Don't Know
TTITLE4=One Time Thing
TTITLE5=Fade Into It
TTITLE6=Memory Lane
TTITLE7=Smell The Rain
TTITLE8=Tell Me Lies
TTITLE9=Ease Up
EXTD=
EXTT0=
EXTT1=
EXTT2=
EXTT3=
EXTT4=
EXTT5=
EXTT6=
EXTT7=
EXTT8=
EXTT9=
PLAYORDER=
